<svg xmlns="http://www.w3.org/2000/svg" id="canvas" viewBox="262.661 299.111 1199.282 274.653"><path d="M 321.21,364.71 C 320.73 366.02, 321.00 367.02, 320.85 371.22 C 320.70 375.42, 320.77 378.05, 320.47 385.70 C 320.16 393.35, 319.85 398.40, 319.33 409.45 C 318.82 420.50, 318.42 427.49, 317.88 440.95 C 317.33 454.41, 317.13 462.57, 316.61 476.77 C 316.08 490.97, 315.67 499.00, 315.24 511.94 C 314.82 524.89, 314.87 531.49, 314.47 541.48 C 314.08 551.47, 313.86 556.32, 313.27 561.89 C 312.67 567.45, 312.35 568.61, 311.51 569.31 C 310.68 570.00, 310.72 569.11, 309.07 565.37 C 307.43 561.62, 305.96 558.72, 303.30 550.58 C 300.65 542.43, 298.73 536.24, 295.78 524.65 C 292.84 513.06, 291.14 505.97, 288.58 492.63 C 286.02 479.29, 284.62 471.74, 282.97 457.95 C 281.32 444.17, 280.49 436.80, 280.32 423.70 C 280.15 410.60, 280.51 404.25, 282.13 392.45 C 283.74 380.66, 284.98 374.98, 288.39 364.71 C 291.80 354.45, 294.06 349.54, 299.17 341.14 C 304.29 332.74, 307.59 328.85, 313.98 322.72 C 320.37 316.58, 323.93 314.03, 331.12 310.47 C 338.30 306.91, 342.48 306.00, 349.89 304.92 C 357.30 303.84, 361.50 304.20, 368.18 305.08 C 374.85 305.95, 378.28 307.12, 383.25 309.30 C 388.22 311.48, 390.53 313.23, 393.03 315.97 C 395.53 318.72, 396.09 320.25, 395.74 323.03 C 395.39 325.80, 394.77 327.33, 391.28 329.85 C 387.78 332.38, 384.90 333.58, 378.27 335.64 C 371.65 337.70, 366.97 338.83, 358.15 340.15 C 349.33 341.47, 343.87 341.54, 334.18 342.26 C 324.48 342.97, 318.93 343.15, 309.66 343.71 C 300.39 344.28, 295.29 344.40, 287.82 345.08 C 280.34 345.77, 276.70 346.11, 272.29 347.14 C 267.89 348.16, 266.23 348.85, 265.77 350.20 C 265.32 351.56, 266.17 353.16, 270.02 353.90 C 273.86 354.64, 277.35 354.38, 284.99 353.92 C 292.64 353.45, 297.85 352.66, 308.26 351.59 C 318.67 350.51, 325.18 350.02, 337.05 348.55 C 348.91 347.08, 355.54 346.26, 367.59 344.22 C 379.63 342.17, 386.07 340.62, 397.28 338.31 C 408.49 336.00, 414.32 334.63, 423.64 332.66 C 432.96 330.69, 437.45 329.67, 443.90 328.45 C 450.34 327.24, 452.56 327.25, 455.87 326.59 C 459.18 325.94, 459.51 325.48, 460.44 325.18 C 461.37 324.88, 460.44 325.15, 460.52 325.11 C 460.59 325.07, 460.84 325.28, 460.83 324.99 C 460.81 324.70, 461.53 323.94, 460.43 323.65 C 459.33 323.36, 458.72 323.00, 455.32 323.55 C 451.93 324.09, 449.87 324.87, 443.46 326.37 C 437.05 327.87, 432.58 328.93, 423.28 331.03 C 413.99 333.13, 408.17 334.51, 396.98 336.87 C 385.79 339.22, 379.37 340.77, 367.35 342.79 C 355.32 344.82, 348.72 345.62, 336.86 346.98 C 325.01 348.35, 318.47 348.75, 308.07 349.62 C 297.68 350.49, 292.41 351.09, 284.87 351.33 C 277.33 351.56, 274.02 350.91, 270.37 350.79 C 266.73 350.68, 266.16 350.93, 266.65 350.75 C 267.14 350.56, 268.56 350.55, 272.83 349.86 C 277.11 349.16, 280.65 348.10, 288.04 347.25 C 295.43 346.40, 300.53 346.22, 309.78 345.60 C 319.04 344.98, 324.57 344.82, 334.31 344.16 C 344.05 343.50, 349.52 343.49, 358.46 342.29 C 367.40 341.08, 372.09 340.12, 379.02 338.13 C 385.94 336.13, 389.08 335.26, 393.07 332.32 C 397.07 329.38, 398.55 327.12, 399.00 323.43 C 399.46 319.75, 398.27 317.23, 395.33 313.91 C 392.39 310.59, 389.67 309.06, 384.29 306.84 C 378.92 304.62, 375.39 303.59, 368.45 302.80 C 361.51 302.02, 357.22 301.71, 349.59 302.91 C 341.96 304.12, 337.65 305.11, 330.29 308.82 C 322.94 312.54, 319.29 315.20, 312.80 321.50 C 306.32 327.81, 303.01 331.79, 297.86 340.34 C 292.71 348.90, 290.46 353.89, 287.06 364.28 C 283.65 374.66, 282.44 380.39, 280.84 392.28 C 279.24 404.17, 278.90 410.55, 279.07 423.71 C 279.25 436.88, 280.09 444.27, 281.72 458.10 C 283.35 471.94, 284.74 479.49, 287.22 492.89 C 289.69 506.28, 291.31 513.39, 294.10 525.07 C 296.89 536.74, 298.63 542.96, 301.16 551.26 C 303.68 559.55, 304.53 562.71, 306.75 566.55 C 308.96 570.39, 310.52 571.34, 312.23 570.46 C 313.94 569.57, 314.53 567.91, 315.29 562.13 C 316.05 556.35, 315.78 551.56, 316.03 541.53 C 316.29 531.50, 316.19 524.93, 316.57 511.99 C 316.94 499.04, 317.35 491.01, 317.90 476.82 C 318.45 462.62, 318.67 454.47, 319.31 441.01 C 319.96 427.56, 320.41 420.59, 321.13 409.55 C 321.85 398.52, 322.33 393.49, 322.90 385.84 C 323.47 378.19, 323.92 375.54, 323.99 371.31 C 324.07 367.07, 323.83 365.97, 323.27 364.65 C 322.72 363.34, 321.70 363.40, 321.21 364.71" style="stroke: black; fill: black;"/><path d="M 313.09,494.28 C 312.89 495.49, 313.01 497.36, 314.45 499.20 C 315.90 501.04, 316.90 502.78, 320.31 503.49 C 323.73 504.20, 326.27 504.01, 331.54 502.75 C 336.80 501.49, 340.16 500.16, 346.65 497.20 C 353.15 494.25, 357.01 491.86, 364.00 487.96 C 371.00 484.07, 374.79 481.54, 381.62 477.73 C 388.44 473.91, 391.96 471.87, 398.12 468.88 C 404.28 465.89, 407.25 464.51, 412.42 462.79 C 417.60 461.07, 420.20 460.61, 423.99 460.27 C 427.79 459.93, 429.35 460.56, 431.39 461.07 C 433.44 461.59, 433.76 462.11, 434.22 462.83 C 434.67 463.56, 434.51 463.97, 433.67 464.71 C 432.83 465.46, 432.10 465.66, 430.01 466.55 C 427.91 467.44, 426.47 468.11, 423.19 469.16 C 419.91 470.22, 417.63 470.33, 413.59 471.84 C 409.55 473.35, 407.14 474.19, 403.00 476.69 C 398.86 479.19, 396.60 480.67, 392.90 484.34 C 389.19 488.00, 387.24 490.15, 384.45 495.01 C 381.67 499.88, 380.42 503.01, 378.95 508.65 C 377.49 514.29, 377.05 517.57, 377.12 523.20 C 377.20 528.82, 377.63 532.04, 379.32 536.78 C 381.02 541.52, 382.35 543.98, 385.60 546.88 C 388.85 549.78, 391.39 551.02, 395.58 551.27 C 399.77 551.53, 402.26 550.75, 406.55 548.13 C 410.85 545.51, 412.94 543.38, 417.05 538.18 C 421.16 532.98, 423.46 529.35, 427.10 522.13 C 430.75 514.92, 432.51 510.29, 435.28 502.08 C 438.05 493.87, 439.31 489.01, 440.95 481.08 C 442.59 473.15, 443.05 468.62, 443.49 462.44 C 443.93 456.27, 444.09 453.13, 443.16 450.21 C 442.23 447.29, 440.49 446.82, 438.82 447.85 C 437.14 448.88, 436.00 450.92, 434.79 455.36 C 433.58 459.80, 433.14 463.35, 432.76 470.04 C 432.38 476.73, 432.31 481.28, 432.90 488.79 C 433.50 496.31, 434.08 500.72, 435.74 507.63 C 437.40 514.54, 438.56 518.22, 441.20 523.33 C 443.83 528.45, 445.37 530.75, 448.92 533.21 C 452.47 535.68, 454.93 536.49, 458.94 535.67 C 462.94 534.85, 465.23 533.12, 468.94 529.12 C 472.64 525.12, 474.23 521.82, 477.46 515.67 C 480.69 509.52, 482.18 505.25, 485.09 498.39 C 487.99 491.53, 489.48 487.36, 491.98 481.37 C 494.48 475.38, 495.80 472.40, 497.59 468.46 C 499.38 464.52, 500.06 462.77, 500.94 461.67 C 501.81 460.57, 501.17 460.91, 501.95 462.94 C 502.73 464.98, 503.56 467.15, 504.83 471.85 C 506.11 476.55, 506.98 479.74, 508.33 486.43 C 509.68 493.12, 510.32 497.74, 511.58 505.30 C 512.85 512.85, 513.32 517.59, 514.66 524.21 C 516.01 530.82, 516.35 534.32, 518.30 538.38 C 520.25 542.44, 521.77 544.21, 524.43 544.51 C 527.09 544.81, 528.92 543.56, 531.61 539.88 C 534.30 536.20, 535.44 532.64, 537.87 526.12 C 540.30 519.60, 541.35 515.04, 543.76 507.28 C 546.17 499.52, 547.38 494.77, 549.92 487.31 C 552.47 479.84, 553.94 475.68, 556.48 469.96 C 559.03 464.25, 560.46 461.48, 562.64 458.73 C 564.82 455.97, 565.48 455.94, 567.38 456.20 C 569.29 456.46, 570.18 457.72, 572.18 460.03 C 574.17 462.35, 575.02 464.40, 577.36 467.77 C 579.70 471.14, 580.84 473.59, 583.88 476.90 C 586.92 480.21, 588.85 482.17, 592.55 484.34 C 596.25 486.51, 598.29 487.38, 602.37 487.75 C 606.46 488.13, 608.95 487.75, 612.98 486.20 C 617.02 484.65, 619.22 483.17, 622.53 479.99 C 625.84 476.82, 627.61 474.37, 629.55 470.34 C 631.49 466.31, 632.42 463.59, 632.23 459.85 C 632.04 456.10, 631.12 453.64, 628.60 451.62 C 626.09 449.60, 623.52 448.97, 619.64 449.73 C 615.76 450.50, 613.27 451.88, 609.19 455.44 C 605.12 459.00, 602.82 461.76, 599.26 467.54 C 595.70 473.33, 593.76 477.39, 591.38 484.37 C 589.01 491.35, 588.06 495.69, 587.38 502.45 C 586.70 509.21, 586.66 513.00, 587.98 518.16 C 589.31 523.33, 590.73 525.87, 594.02 528.25 C 597.30 530.64, 600.08 531.02, 604.43 530.08 C 608.77 529.14, 611.20 527.51, 615.75 523.57 C 620.30 519.63, 622.89 516.42, 627.17 510.38 C 631.45 504.34, 633.84 500.27, 637.14 493.37 C 640.44 486.47, 641.82 482.09, 643.67 475.86 C 645.51 469.64, 646.20 466.07, 646.35 462.25 C 646.50 458.43, 645.53 456.99, 644.42 456.77 C 643.30 456.55, 641.70 457.78, 640.79 461.16 C 639.87 464.54, 639.54 467.91, 639.83 473.66 C 640.12 479.42, 640.74 483.54, 642.22 489.95 C 643.71 496.36, 644.54 500.31, 647.27 505.72 C 650.00 511.13, 651.71 513.88, 655.89 517.01 C 660.06 520.14, 662.92 521.27, 668.14 521.36 C 673.36 521.45, 676.45 520.30, 681.99 517.47 C 687.52 514.63, 690.43 512.14, 695.80 507.18 C 701.18 502.22, 704.04 498.75, 708.87 492.67 C 713.71 486.59, 716.16 482.63, 719.98 476.78 C 723.79 470.92, 725.47 467.81, 727.93 463.39 C 730.40 458.97, 731.67 457.09, 732.31 454.68 C 732.95 452.28, 732.12 451.35, 731.12 451.35 C 730.12 451.35, 728.64 451.99, 727.32 454.69 C 726.00 457.39, 725.64 459.85, 724.50 464.84 C 723.36 469.83, 722.54 473.34, 721.62 479.63 C 720.71 485.92, 720.21 490.00, 719.91 496.29 C 719.62 502.58, 719.48 506.22, 720.15 511.07 C 720.82 515.91, 721.33 518.29, 723.27 520.51 C 725.20 522.73, 727.14 523.36, 729.83 522.15 C 732.52 520.95, 734.10 518.86, 736.70 514.50 C 739.29 510.14, 740.69 506.76, 742.81 500.35 C 744.94 493.95, 745.98 489.56, 747.30 482.47 C 748.61 475.37, 749.09 470.82, 749.39 464.87 C 749.70 458.92, 749.98 455.85, 748.83 452.73 C 747.67 449.61, 745.86 448.92, 743.63 449.27 C 741.40 449.62, 739.50 451.32, 737.67 454.47 C 735.85 457.62, 735.05 460.46, 734.50 465.02 C 733.96 469.59, 733.90 472.70, 734.94 477.30 C 735.98 481.91, 737.10 484.63, 739.70 488.04 C 742.31 491.46, 744.13 492.97, 747.96 494.37 C 751.80 495.77, 754.29 495.91, 758.89 495.05 C 763.49 494.18, 766.15 492.77, 770.96 490.06 C 775.77 487.36, 778.44 485.26, 782.94 481.52 C 787.45 477.79, 789.71 475.20, 793.48 471.40 C 797.25 467.60, 799.01 465.51, 801.78 462.54 C 804.55 459.57, 805.76 458.40, 807.34 456.55 C 808.91 454.70, 809.02 453.69, 809.68 453.27 C 810.33 452.86, 810.07 453.28, 810.62 454.49 C 811.16 455.71, 811.27 457.05, 812.41 459.35 C 813.55 461.65, 814.65 462.75, 816.30 465.98 C 817.95 469.20, 818.86 471.21, 820.65 475.47 C 822.44 479.72, 823.41 482.43, 825.25 487.25 C 827.09 492.07, 828.09 494.82, 829.82 499.56 C 831.56 504.31, 832.51 506.78, 833.92 510.97 C 835.32 515.16, 835.87 517.25, 836.85 520.52 C 837.82 523.78, 838.04 525.30, 838.79 527.29 C 839.55 529.29, 839.96 529.84, 840.63 530.49 C 841.30 531.14, 841.52 530.83, 842.14 530.55 C 842.76 530.26, 843.13 529.92, 843.75 529.09 C 844.37 528.25, 845.01 527.58, 845.25 526.36 C 845.50 525.15, 845.20 524.12, 844.97 523.00 C 844.75 521.88, 844.27 521.25, 844.12 520.77 C 843.98 520.29, 843.82 520.32, 844.25 520.60 C 844.69 520.89, 845.02 521.47, 846.28 522.21 C 847.54 522.96, 848.51 523.53, 850.55 524.32 C 852.59 525.12, 854.05 525.69, 856.49 526.19 C 858.94 526.69, 860.46 526.95, 862.77 526.83 C 865.07 526.71, 866.40 526.33, 868.02 525.59 C 869.65 524.85, 870.28 524.08, 870.89 523.15 C 871.50 522.22, 871.29 521.49, 871.09 520.94 C 870.88 520.39, 870.31 520.45, 869.88 520.38 C 869.45 520.32, 869.60 520.58, 868.95 520.61 C 868.31 520.64, 867.87 520.51, 866.66 520.54 C 865.45 520.57, 864.59 520.95, 862.90 520.75 C 861.21 520.54, 860.21 520.15, 858.21 519.50 C 856.21 518.86, 854.90 518.14, 852.89 517.54 C 850.87 516.94, 849.89 516.72, 848.13 516.49 C 846.38 516.25, 845.65 516.02, 844.11 516.37 C 842.57 516.73, 841.65 517.19, 840.44 518.27 C 839.24 519.36, 838.77 520.28, 838.09 521.80 C 837.40 523.32, 836.95 524.27, 837.03 525.86 C 837.10 527.46, 837.58 528.71, 838.46 529.79 C 839.34 530.88, 840.46 531.25, 841.43 531.30 C 842.39 531.34, 842.93 531.08, 843.29 530.02 C 843.66 528.96, 843.71 528.17, 843.26 525.99 C 842.80 523.82, 842.19 522.40, 841.01 519.15 C 839.83 515.89, 838.96 513.89, 837.37 509.73 C 835.78 505.58, 834.82 503.12, 833.07 498.37 C 831.32 493.63, 830.34 490.88, 828.61 486.01 C 826.89 481.14, 825.96 478.43, 824.43 474.02 C 822.89 469.60, 822.27 467.46, 820.94 463.93 C 819.62 460.40, 819.28 458.84, 817.80 456.38 C 816.31 453.92, 815.31 452.80, 813.52 451.64 C 811.72 450.47, 810.71 450.19, 808.83 450.57 C 806.96 450.94, 806.12 451.63, 804.15 453.53 C 802.17 455.43, 801.57 456.94, 798.97 460.06 C 796.36 463.17, 794.74 465.31, 791.13 469.11 C 787.52 472.92, 785.27 475.46, 780.91 479.07 C 776.55 482.67, 773.87 484.65, 769.33 487.15 C 764.80 489.65, 762.26 490.82, 758.24 491.56 C 754.23 492.31, 752.34 492.04, 749.26 490.88 C 746.18 489.71, 744.88 488.62, 742.83 485.74 C 740.78 482.85, 739.76 480.49, 739.01 476.46 C 738.26 472.44, 738.54 469.62, 739.10 465.61 C 739.65 461.61, 740.75 459.27, 741.78 456.43 C 742.82 453.59, 743.54 451.96, 744.28 451.40 C 745.02 450.84, 745.06 450.97, 745.48 453.64 C 745.89 456.31, 746.55 459.08, 746.36 464.74 C 746.17 470.40, 745.83 475.03, 744.53 481.95 C 743.23 488.87, 742.05 493.20, 739.86 499.34 C 737.68 505.49, 735.94 508.69, 733.61 512.68 C 731.28 516.66, 729.74 518.07, 728.19 519.26 C 726.65 520.44, 726.83 520.32, 725.90 518.59 C 724.96 516.87, 724.09 515.05, 723.51 510.61 C 722.93 506.18, 722.72 502.52, 723.00 496.43 C 723.28 490.34, 723.81 486.28, 724.92 480.17 C 726.02 474.06, 727.13 470.66, 728.53 465.89 C 729.92 461.11, 731.27 459.12, 731.89 456.29 C 732.51 453.47, 732.17 452.33, 731.63 451.74 C 731.08 451.15, 730.45 451.29, 729.17 453.34 C 727.89 455.38, 727.50 457.53, 725.24 461.95 C 722.98 466.37, 721.51 469.58, 717.86 475.43 C 714.21 481.27, 711.75 485.20, 707.00 491.19 C 702.25 497.17, 699.37 500.57, 694.12 505.35 C 688.88 510.13, 685.96 512.44, 680.77 515.09 C 675.58 517.73, 672.82 518.63, 668.18 518.57 C 663.54 518.51, 661.26 517.59, 657.59 514.76 C 653.93 511.94, 652.30 509.55, 649.85 504.44 C 647.41 499.34, 646.63 495.45, 645.37 489.26 C 644.11 483.08, 643.69 479.02, 643.55 473.52 C 643.41 468.02, 644.51 465.02, 644.65 461.78 C 644.79 458.53, 644.57 457.28, 644.26 457.30 C 643.94 457.33, 643.72 458.33, 643.08 461.89 C 642.43 465.46, 642.66 469.03, 641.03 475.11 C 639.39 481.20, 638.09 485.55, 634.89 492.30 C 631.69 499.04, 629.24 503.03, 625.03 508.84 C 620.81 514.65, 618.10 517.71, 613.84 521.35 C 609.58 524.99, 607.33 526.15, 603.73 527.04 C 600.13 527.92, 598.43 527.69, 595.83 525.77 C 593.22 523.86, 591.88 522.08, 590.71 517.47 C 589.54 512.85, 589.35 509.15, 589.97 502.70 C 590.60 496.25, 591.49 491.94, 593.84 485.22 C 596.18 478.49, 598.19 474.52, 601.70 469.08 C 605.22 463.65, 607.66 461.14, 611.41 458.05 C 615.16 454.96, 617.53 454.30, 620.46 453.63 C 623.39 452.97, 624.59 453.45, 626.07 454.71 C 627.55 455.97, 627.92 457.17, 627.87 459.94 C 627.82 462.70, 627.42 465.11, 625.80 468.55 C 624.18 471.99, 622.62 474.35, 619.77 477.15 C 616.93 479.96, 614.98 481.23, 611.57 482.57 C 608.17 483.92, 606.13 484.19, 602.74 483.86 C 599.34 483.53, 597.75 482.88, 594.61 480.93 C 591.46 478.98, 589.72 477.25, 587.00 474.11 C 584.28 470.98, 583.37 468.65, 581.00 465.24 C 578.64 461.83, 577.86 459.52, 575.18 457.08 C 572.50 454.63, 570.56 453.08, 567.59 453.03 C 564.61 452.98, 563.00 453.63, 560.31 456.81 C 557.62 459.99, 556.66 463.00, 554.14 468.95 C 551.62 474.90, 550.28 479.04, 547.73 486.56 C 545.18 494.08, 543.90 498.82, 541.38 506.53 C 538.87 514.23, 537.65 518.78, 535.17 525.09 C 532.68 531.40, 531.05 534.70, 528.96 538.09 C 526.87 541.49, 526.29 542.26, 524.71 542.07 C 523.13 541.88, 522.54 540.84, 521.05 537.16 C 519.57 533.48, 518.68 530.11, 517.30 523.66 C 515.92 517.20, 515.36 512.43, 514.16 504.88 C 512.96 497.32, 512.47 492.66, 511.30 485.87 C 510.14 479.08, 509.59 475.88, 508.33 470.93 C 507.07 465.98, 506.77 463.36, 504.99 461.12 C 503.20 458.88, 501.46 458.52, 499.40 459.71 C 497.34 460.91, 496.66 462.97, 494.68 467.10 C 492.70 471.22, 491.88 474.30, 489.49 480.35 C 487.09 486.41, 485.59 490.57, 482.70 497.37 C 479.80 504.17, 478.21 508.43, 475.01 514.36 C 471.81 520.30, 470.05 523.41, 466.70 527.05 C 463.35 530.69, 461.47 531.83, 458.27 532.57 C 455.06 533.31, 453.59 532.85, 450.65 530.75 C 447.72 528.65, 446.09 526.82, 443.60 522.08 C 441.11 517.34, 439.80 513.73, 438.20 507.04 C 436.59 500.34, 436.00 495.96, 435.56 488.61 C 435.11 481.25, 435.43 476.75, 435.98 470.27 C 436.53 463.79, 437.49 460.42, 438.33 456.20 C 439.17 451.97, 439.84 450.23, 440.18 449.15 C 440.51 448.07, 439.87 448.19, 440.00 450.82 C 440.14 453.45, 441.09 456.33, 440.85 462.30 C 440.61 468.26, 440.32 472.83, 438.80 480.65 C 437.29 488.47, 436.01 493.31, 433.25 501.39 C 430.49 509.47, 428.68 514.05, 425.02 521.06 C 421.35 528.08, 418.95 531.60, 414.93 536.47 C 410.91 541.34, 408.75 543.15, 404.92 545.42 C 401.09 547.69, 399.20 548.04, 395.79 547.82 C 392.39 547.60, 390.59 546.75, 387.90 544.32 C 385.21 541.89, 383.90 539.92, 382.36 535.68 C 380.81 531.45, 380.28 528.40, 380.19 523.15 C 380.09 517.89, 380.47 514.72, 381.86 509.41 C 383.25 504.09, 384.47 501.11, 387.14 496.57 C 389.80 492.03, 391.66 490.06, 395.20 486.73 C 398.75 483.40, 400.90 482.07, 404.85 479.91 C 408.80 477.76, 411.00 477.09, 414.95 475.97 C 418.90 474.84, 421.04 475.13, 424.60 474.30 C 428.17 473.48, 430.26 473.34, 432.76 471.83 C 435.26 470.33, 436.26 468.86, 437.11 466.77 C 437.96 464.68, 437.93 463.29, 437.02 461.38 C 436.10 459.47, 435.22 458.13, 432.54 457.23 C 429.86 456.33, 427.80 456.29, 423.59 456.90 C 419.39 457.50, 416.83 458.28, 411.53 460.26 C 406.23 462.23, 403.29 463.68, 397.09 466.78 C 390.89 469.88, 387.37 471.95, 380.52 475.77 C 373.68 479.59, 369.86 482.10, 362.86 485.87 C 355.86 489.64, 351.94 491.95, 345.53 494.62 C 339.12 497.28, 335.64 498.39, 330.81 499.20 C 325.98 500.00, 323.97 499.24, 321.38 498.63 C 318.79 498.03, 319.05 497.24, 317.87 496.15 C 316.68 495.05, 316.40 493.53, 315.45 493.15 C 314.49 492.78, 313.29 493.07, 313.09 494.28" style="stroke: black; fill: black;"/><path d="M 826.79,418.71 C 827.75 419.56, 829.03 420.24, 831.67 420.62 C 834.32 421.00, 836.66 420.79, 840.01 420.59 C 843.37 420.38, 845.75 420.42, 848.45 419.59 C 851.15 418.77, 852.60 417.50, 853.52 416.46 C 854.43 415.42, 854.21 414.92, 853.02 414.38 C 851.84 413.84, 850.29 413.79, 847.60 413.75 C 844.92 413.70, 842.79 413.94, 839.59 414.17 C 836.39 414.39, 834.14 414.43, 831.60 414.87 C 829.06 415.31, 827.85 415.60, 826.89 416.37 C 825.92 417.14, 825.83 417.86, 826.79 418.71" style="stroke: black; fill: black;"/><path d="M 1022.06,325.97 C 1021.70 327.14, 1021.87 327.77, 1022.22 331.45 C 1022.58 335.14, 1023.26 337.33, 1023.84 344.39 C 1024.41 351.46, 1024.67 356.23, 1025.09 366.75 C 1025.51 377.28, 1025.70 383.83, 1025.94 397.02 C 1026.18 410.21, 1026.22 418.30, 1026.29 432.70 C 1026.35 447.11, 1026.21 455.27, 1026.27 469.04 C 1026.32 482.81, 1026.25 490.18, 1026.58 501.54 C 1026.90 512.90, 1027.19 518.16, 1027.88 525.84 C 1028.57 533.52, 1028.51 536.63, 1030.04 539.94 C 1031.58 543.26, 1033.31 543.87, 1035.56 542.42 C 1037.81 540.96, 1038.86 538.55, 1041.30 532.66 C 1043.74 526.77, 1044.84 522.43, 1047.76 512.97 C 1050.67 503.52, 1052.26 497.35, 1055.87 485.39 C 1059.48 473.43, 1061.50 466.21, 1065.80 453.18 C 1070.09 440.14, 1072.63 432.82, 1077.37 420.22 C 1082.10 407.62, 1084.65 401.08, 1089.46 390.18 C 1094.27 379.28, 1096.75 374.02, 1101.43 365.71 C 1106.10 357.41, 1108.72 353.80, 1112.85 348.65 C 1116.99 343.51, 1119.33 341.83, 1122.10 340.00 C 1124.86 338.18, 1125.37 338.31, 1126.68 339.51 C 1127.98 340.71, 1128.44 342.06, 1128.62 346.01 C 1128.81 349.96, 1128.89 352.78, 1127.60 359.27 C 1126.31 365.77, 1125.30 369.87, 1122.18 378.49 C 1119.06 387.10, 1116.86 392.26, 1111.99 402.34 C 1107.12 412.42, 1103.92 418.20, 1097.84 428.89 C 1091.76 439.57, 1088.03 445.53, 1081.58 455.76 C 1075.12 466.00, 1071.47 471.26, 1065.57 480.06 C 1059.68 488.86, 1056.53 493.07, 1052.12 499.76 C 1047.71 506.46, 1045.45 509.06, 1043.53 513.52 C 1041.60 517.99, 1041.43 519.70, 1042.49 522.10 C 1043.54 524.49, 1045.25 525.22, 1048.81 525.50 C 1052.36 525.78, 1054.76 524.92, 1060.27 523.52 C 1065.77 522.12, 1069.47 520.97, 1076.31 518.51 C 1083.15 516.06, 1087.17 514.45, 1094.46 511.26 C 1101.74 508.06, 1105.73 506.21, 1112.72 502.53 C 1119.71 498.85, 1123.33 497.00, 1129.40 492.86 C 1135.46 488.73, 1138.26 486.79, 1143.05 481.86 C 1147.83 476.94, 1149.95 474.22, 1153.33 468.22 C 1156.71 462.22, 1158.05 459.14, 1159.95 451.87 C 1161.85 444.60, 1162.24 440.40, 1162.81 431.87 C 1163.39 423.34, 1163.30 418.10, 1162.85 409.22 C 1162.40 400.33, 1161.73 395.34, 1160.56 387.44 C 1159.39 379.54, 1158.66 375.60, 1157.01 369.71 C 1155.35 363.83, 1154.59 361.14, 1152.27 358.02 C 1149.95 354.91, 1147.95 353.87, 1145.41 354.15 C 1142.87 354.43, 1141.50 355.49, 1139.58 359.43 C 1137.65 363.37, 1137.17 366.35, 1135.80 373.84 C 1134.43 381.33, 1133.78 386.50, 1132.73 396.87 C 1131.68 407.24, 1131.32 413.80, 1130.56 425.68 C 1129.81 437.56, 1129.41 444.52, 1128.95 456.28 C 1128.49 468.04, 1128.29 474.54, 1128.27 484.46 C 1128.25 494.39, 1128.27 499.24, 1128.85 505.91 C 1129.43 512.58, 1129.50 515.18, 1131.17 517.80 C 1132.83 520.41, 1134.81 520.38, 1137.18 518.99 C 1139.54 517.60, 1140.59 515.25, 1142.97 510.84 C 1145.36 506.43, 1146.71 502.54, 1149.10 496.94 C 1151.48 491.33, 1152.64 487.36, 1154.89 482.80 C 1157.14 478.25, 1158.78 476.18, 1160.36 474.16 C 1161.95 472.14, 1161.92 471.71, 1162.83 472.71 C 1163.74 473.70, 1163.89 475.35, 1164.92 479.12 C 1165.95 482.89, 1166.64 486.39, 1167.99 491.58 C 1169.34 496.76, 1169.85 500.17, 1171.65 505.04 C 1173.45 509.91, 1174.22 512.67, 1177.01 515.93 C 1179.80 519.18, 1181.82 520.78, 1185.60 521.31 C 1189.39 521.84, 1191.73 521.12, 1195.93 518.58 C 1200.13 516.04, 1202.24 513.52, 1206.60 508.61 C 1210.95 503.70, 1213.40 500.06, 1217.70 494.04 C 1222.00 488.01, 1224.69 483.59, 1228.12 478.49 C 1231.54 473.38, 1233.61 470.79, 1234.82 468.51 C 1236.04 466.24, 1234.87 465.73, 1234.19 467.13 C 1233.50 468.54, 1232.64 470.94, 1231.39 475.54 C 1230.14 480.14, 1228.93 484.23, 1227.94 490.13 C 1226.95 496.02, 1226.36 499.88, 1226.44 505.01 C 1226.53 510.15, 1226.68 512.76, 1228.37 515.81 C 1230.06 518.86, 1231.87 520.15, 1234.90 520.27 C 1237.92 520.39, 1240.13 519.46, 1243.50 516.41 C 1246.87 513.36, 1248.70 510.70, 1251.75 505.02 C 1254.80 499.34, 1256.65 495.27, 1258.73 488.01 C 1260.81 480.76, 1261.91 476.09, 1262.15 468.75 C 1262.38 461.40, 1262.06 457.18, 1259.91 451.29 C 1257.77 445.39, 1255.83 442.43, 1251.42 439.26 C 1247.01 436.09, 1243.55 435.33, 1237.85 435.44 C 1232.14 435.55, 1228.49 436.91, 1222.90 439.81 C 1217.31 442.70, 1214.21 445.45, 1209.91 449.93 C 1205.60 454.41, 1203.52 457.33, 1201.39 462.19 C 1199.26 467.05, 1198.78 470.00, 1199.26 474.21 C 1199.74 478.43, 1200.75 481.05, 1203.79 483.29 C 1206.84 485.52, 1209.59 485.81, 1214.49 485.38 C 1219.39 484.94, 1222.60 483.66, 1228.28 481.09 C 1233.96 478.52, 1237.14 476.44, 1242.89 472.53 C 1248.63 468.62, 1251.81 465.77, 1257.00 461.53 C 1262.19 457.29, 1264.97 454.48, 1268.83 451.33 C 1272.70 448.19, 1274.33 446.72, 1276.32 445.80 C 1278.32 444.88, 1278.02 444.71, 1278.82 446.74 C 1279.61 448.77, 1279.95 450.99, 1280.29 455.93 C 1280.64 460.88, 1280.44 464.82, 1280.54 471.46 C 1280.65 478.10, 1280.46 482.50, 1280.82 489.14 C 1281.17 495.77, 1281.15 499.44, 1282.31 504.64 C 1283.46 509.85, 1284.14 512.42, 1286.60 515.17 C 1289.06 517.92, 1291.07 518.94, 1294.61 518.39 C 1298.15 517.85, 1300.14 516.20, 1304.28 512.46 C 1308.42 508.73, 1310.86 505.60, 1315.31 499.72 C 1319.77 493.83, 1322.16 489.53, 1326.56 483.06 C 1330.96 476.58, 1333.57 472.35, 1337.30 467.34 C 1341.04 462.32, 1343.18 460.03, 1345.21 457.99 C 1347.25 455.94, 1346.81 455.69, 1347.49 457.09 C 1348.16 458.49, 1348.10 460.58, 1348.59 464.98 C 1349.08 469.38, 1349.11 473.13, 1349.92 479.10 C 1350.73 485.08, 1350.98 489.11, 1352.63 494.86 C 1354.29 500.61, 1355.24 503.73, 1358.19 507.86 C 1361.15 511.99, 1363.13 513.69, 1367.40 515.51 C 1371.67 517.33, 1374.36 517.60, 1379.53 516.95 C 1384.71 516.31, 1387.79 514.94, 1393.27 512.27 C 1398.74 509.60, 1401.70 507.40, 1406.90 503.60 C 1412.09 499.81, 1414.75 497.28, 1419.26 493.28 C 1423.76 489.29, 1426.11 486.77, 1429.40 483.63 C 1432.70 480.50, 1434.25 478.97, 1435.75 477.61 C 1437.26 476.25, 1436.79 475.86, 1436.93 476.83 C 1437.06 477.79, 1436.59 479.30, 1436.44 482.44 C 1436.29 485.58, 1435.78 488.54, 1436.17 492.53 C 1436.56 496.52, 1437.12 499.13, 1438.39 502.39 C 1439.65 505.65, 1440.76 507.11, 1442.49 508.84 C 1444.22 510.58, 1445.57 510.76, 1447.03 511.07 C 1448.50 511.38, 1449.25 510.81, 1449.80 510.39 C 1450.35 509.96, 1450.12 509.36, 1449.80 508.93 C 1449.48 508.51, 1448.95 508.86, 1448.22 508.25 C 1447.49 507.64, 1447.07 507.42, 1446.15 505.89 C 1445.23 504.35, 1444.48 503.33, 1443.61 500.55 C 1442.75 497.77, 1442.19 495.66, 1441.82 491.97 C 1441.45 488.28, 1442.32 485.42, 1441.76 482.10 C 1441.20 478.78, 1440.58 476.85, 1439.01 475.37 C 1437.43 473.89, 1436.28 473.55, 1433.88 474.70 C 1431.47 475.85, 1430.30 477.85, 1426.98 481.13 C 1423.66 484.41, 1421.64 487.07, 1417.29 491.11 C 1412.93 495.15, 1410.28 497.61, 1405.22 501.31 C 1400.16 505.01, 1397.19 507.09, 1391.98 509.61 C 1386.76 512.14, 1383.82 513.30, 1379.14 513.92 C 1374.47 514.53, 1372.29 514.25, 1368.60 512.69 C 1364.91 511.12, 1363.27 509.83, 1360.70 506.10 C 1358.12 502.36, 1357.16 499.50, 1355.71 494.01 C 1354.27 488.52, 1354.17 484.56, 1353.47 478.65 C 1352.77 472.74, 1353.01 469.08, 1352.20 464.46 C 1351.39 459.84, 1351.23 457.35, 1349.44 455.57 C 1347.64 453.80, 1346.09 453.55, 1343.22 455.58 C 1340.34 457.60, 1338.81 460.48, 1335.06 465.69 C 1331.30 470.90, 1328.82 475.15, 1324.44 481.61 C 1320.05 488.08, 1317.57 492.33, 1313.12 498.03 C 1308.67 503.73, 1306.01 506.73, 1302.19 510.13 C 1298.37 513.54, 1296.62 514.50, 1294.00 515.07 C 1291.39 515.65, 1290.87 515.25, 1289.13 513.03 C 1287.39 510.81, 1286.37 508.78, 1285.29 503.98 C 1284.21 499.17, 1284.05 495.50, 1283.74 488.99 C 1283.42 482.48, 1283.73 478.10, 1283.73 471.44 C 1283.74 464.78, 1284.16 460.95, 1283.77 455.68 C 1283.38 450.42, 1283.50 447.73, 1281.80 445.14 C 1280.10 442.54, 1278.27 441.95, 1275.28 442.70 C 1272.29 443.46, 1270.85 445.58, 1266.85 448.92 C 1262.84 452.27, 1260.35 455.16, 1255.26 459.42 C 1250.16 463.69, 1246.99 466.48, 1241.35 470.26 C 1235.71 474.04, 1232.49 475.97, 1227.05 478.32 C 1221.62 480.68, 1218.42 481.62, 1214.18 482.04 C 1209.93 482.47, 1208.14 482.10, 1205.83 480.47 C 1203.51 478.83, 1202.92 477.27, 1202.59 473.86 C 1202.27 470.45, 1202.34 467.81, 1204.22 463.42 C 1206.10 459.03, 1208.00 456.15, 1212.00 451.92 C 1215.99 447.69, 1219.01 445.03, 1224.20 442.27 C 1229.38 439.51, 1232.77 438.31, 1237.92 438.12 C 1243.06 437.94, 1245.99 438.56, 1249.92 441.36 C 1253.86 444.16, 1255.63 446.66, 1257.58 452.13 C 1259.54 457.59, 1259.96 461.63, 1259.68 468.66 C 1259.40 475.69, 1258.32 480.29, 1256.19 487.26 C 1254.06 494.23, 1252.06 498.22, 1249.03 503.51 C 1246.00 508.81, 1243.86 511.08, 1241.04 513.75 C 1238.22 516.43, 1236.78 516.82, 1234.92 516.91 C 1233.06 516.99, 1232.70 516.55, 1231.74 514.17 C 1230.79 511.78, 1230.11 509.66, 1230.14 504.99 C 1230.17 500.32, 1230.89 496.53, 1231.89 490.81 C 1232.89 485.09, 1234.26 481.12, 1235.15 476.40 C 1236.04 471.68, 1236.93 469.19, 1236.36 467.20 C 1235.79 465.22, 1234.46 464.56, 1232.29 466.47 C 1230.13 468.38, 1228.89 471.58, 1225.52 476.77 C 1222.14 481.96, 1219.65 486.45, 1215.43 492.43 C 1211.21 498.40, 1208.66 501.99, 1204.43 506.66 C 1200.19 511.34, 1197.91 513.57, 1194.25 515.80 C 1190.58 518.04, 1188.99 518.28, 1186.10 517.85 C 1183.20 517.42, 1181.96 516.47, 1179.76 513.66 C 1177.57 510.85, 1176.71 508.41, 1175.13 503.80 C 1173.55 499.19, 1173.14 495.78, 1171.86 490.60 C 1170.59 485.41, 1170.26 481.89, 1168.77 477.87 C 1167.28 473.86, 1166.63 471.79, 1164.42 470.52 C 1162.20 469.24, 1160.25 469.36, 1157.70 471.49 C 1155.14 473.63, 1154.02 476.38, 1151.62 481.18 C 1149.22 485.98, 1148.08 489.89, 1145.70 495.49 C 1143.32 501.09, 1141.77 504.91, 1139.73 509.18 C 1137.69 513.46, 1136.74 515.40, 1135.49 516.87 C 1134.25 518.34, 1134.43 518.78, 1133.52 516.55 C 1132.61 514.31, 1131.66 512.12, 1130.95 505.70 C 1130.23 499.28, 1130.04 494.33, 1129.94 484.46 C 1129.85 474.58, 1130.03 468.07, 1130.48 456.34 C 1130.93 444.61, 1131.33 437.64, 1132.17 425.79 C 1133.01 413.94, 1133.45 407.37, 1134.67 397.08 C 1135.89 386.79, 1136.73 381.60, 1138.29 374.34 C 1139.86 367.07, 1141.02 364.30, 1142.50 360.77 C 1143.99 357.23, 1144.26 356.84, 1145.71 356.65 C 1147.15 356.45, 1147.94 357.05, 1149.72 359.81 C 1151.50 362.56, 1152.86 364.83, 1154.61 370.42 C 1156.35 376.02, 1157.20 379.99, 1158.44 387.77 C 1159.69 395.55, 1160.36 400.53, 1160.82 409.32 C 1161.28 418.11, 1161.36 423.33, 1160.77 431.73 C 1160.18 440.13, 1159.75 444.24, 1157.87 451.32 C 1155.99 458.40, 1154.67 461.32, 1151.39 467.12 C 1148.10 472.92, 1146.09 475.52, 1141.45 480.31 C 1136.81 485.10, 1134.12 487.01, 1128.17 491.06 C 1122.22 495.12, 1118.63 496.99, 1111.71 500.60 C 1104.78 504.21, 1100.79 506.05, 1093.53 509.11 C 1086.27 512.17, 1082.22 513.66, 1075.41 515.90 C 1068.60 518.13, 1064.79 519.07, 1059.48 520.28 C 1054.17 521.49, 1051.83 521.79, 1048.86 521.97 C 1045.90 522.14, 1045.28 522.65, 1044.67 521.16 C 1044.05 519.67, 1043.97 518.58, 1045.78 514.51 C 1047.58 510.43, 1049.47 507.49, 1053.69 500.78 C 1057.91 494.06, 1061.04 489.77, 1066.86 480.92 C 1072.69 472.07, 1076.34 466.79, 1082.79 456.53 C 1089.25 446.27, 1092.98 440.31, 1099.12 429.62 C 1105.26 418.93, 1108.49 413.15, 1113.49 403.07 C 1118.49 392.99, 1120.76 387.86, 1124.12 379.21 C 1127.47 370.57, 1128.71 366.54, 1130.27 359.85 C 1131.83 353.17, 1132.32 350.27, 1131.93 345.79 C 1131.54 341.30, 1130.58 339.04, 1128.33 337.42 C 1126.08 335.81, 1124.09 335.72, 1120.68 337.72 C 1117.26 339.71, 1115.38 341.96, 1111.25 347.41 C 1107.13 352.85, 1104.66 356.50, 1100.05 364.95 C 1095.44 373.40, 1092.99 378.68, 1088.22 389.64 C 1083.44 400.60, 1080.90 407.14, 1076.16 419.76 C 1071.42 432.39, 1068.88 439.72, 1064.52 452.76 C 1060.16 465.79, 1058.12 473.01, 1054.37 484.93 C 1050.62 496.85, 1048.88 503.00, 1045.79 512.34 C 1042.70 521.69, 1041.25 526.01, 1038.92 531.67 C 1036.58 537.34, 1035.45 539.18, 1034.12 540.66 C 1032.79 542.15, 1033.13 542.10, 1032.24 539.10 C 1031.36 536.10, 1030.54 533.18, 1029.69 525.66 C 1028.84 518.14, 1028.42 512.82, 1027.99 501.49 C 1027.56 490.17, 1027.62 482.79, 1027.54 469.04 C 1027.45 455.28, 1027.60 447.10, 1027.57 432.70 C 1027.55 418.29, 1027.53 410.20, 1027.41 397.00 C 1027.29 383.80, 1027.17 377.25, 1026.98 366.70 C 1026.79 356.15, 1026.72 351.37, 1026.46 344.24 C 1026.20 337.11, 1026.17 334.78, 1025.67 331.06 C 1025.18 327.34, 1024.74 326.66, 1024.01 325.65 C 1023.29 324.63, 1022.42 324.81, 1022.06 325.97" style="stroke: black; fill: black;"/><path d="M 1456.03,474.19 C 1457.01 473.70, 1457.84 472.78, 1458.36 471.23 C 1458.88 469.68, 1459.23 467.61, 1458.62 466.43 C 1458.01 465.24, 1456.54 464.68, 1455.32 465.32 C 1454.10 465.96, 1452.88 467.95, 1452.52 469.63 C 1452.15 471.31, 1452.78 472.79, 1453.49 473.70 C 1454.19 474.61, 1455.06 474.69, 1456.03 474.19" style="stroke: black; fill: black;"/></svg>